<svg width="121" height="38" viewBox="0 0 121 38" fill="none" xmlns="http://www.w3.org/2000/svg">
<g clip-path="url(#clip0_1_308)">
<path fill-rule="evenodd" clip-rule="evenodd" d="M75.1802 29.1294C68.2212 34.4248 58.1346 37.2501 49.4502 37.2501C37.2733 37.2501 26.3109 32.6005 18.0175 24.8673C17.3659 24.2592 17.9497 23.4304 18.7316 23.904C27.6819 29.2801 38.7485 32.5144 50.18 32.5144C57.8896 32.5144 66.3707 30.8677 74.169 27.4504C75.347 26.9338 76.3323 28.2469 75.1802 29.1294Z" fill="#FFFDF8"/>
<path fill-rule="evenodd" clip-rule="evenodd" d="M78.0742 25.7122C77.188 24.539 72.1942 25.1579 69.9528 25.4323C69.2699 25.5185 69.1656 24.905 69.7807 24.4637C73.758 21.5738 80.2844 22.4079 81.0454 23.3766C81.8065 24.3507 80.8473 31.1045 77.1098 34.328C76.5364 34.8231 75.9891 34.5594 76.2445 33.9028C77.0837 31.7395 78.9655 26.8907 78.0742 25.7122Z" fill="#FFFDF8"/>
<path fill-rule="evenodd" clip-rule="evenodd" d="M70.1081 4.06229V1.25314C70.1081 0.828005 70.4209 0.542786 70.7962 0.542786H82.9783C83.3693 0.542786 83.682 0.833387 83.682 1.25314V3.65868C83.6768 4.06229 83.3484 4.58968 82.7646 5.42381L76.452 14.7284C78.7977 14.6692 81.2738 15.0298 83.4006 16.2675C83.8801 16.5474 84.0104 16.9564 84.0469 17.36V20.3575C84.0469 20.7665 83.6091 21.2454 83.1503 20.9979C79.4024 18.9691 74.4242 18.7484 70.2801 21.0194C69.8579 21.2562 69.4148 20.7826 69.4148 20.3736V17.5268C69.4148 17.0694 69.42 16.2891 69.8631 15.5949L77.1766 4.76727H70.8118C70.4208 4.76727 70.1081 4.48205 70.1081 4.06229Z" fill="#FFFDF8"/>
<path fill-rule="evenodd" clip-rule="evenodd" d="M25.6704 21.5899H21.9641C21.6097 21.563 21.3282 21.2886 21.3021 20.9388V1.30167C21.3021 0.908819 21.6201 0.596689 22.0163 0.596689H25.4723C25.832 0.612823 26.1187 0.898052 26.1448 1.25323V3.82021H26.2125C27.1143 1.33934 28.8085 0.182312 31.0916 0.182312C33.4113 0.182312 34.8604 1.33934 35.903 3.82021C36.7996 1.33934 38.8377 0.182312 41.0219 0.182312C42.5753 0.182312 44.2746 0.844237 45.312 2.32953C46.4848 3.98165 46.245 6.3818 46.245 8.48598L46.2398 20.8796C46.2398 21.2724 45.9219 21.5899 45.5257 21.5899H41.8246C41.4545 21.563 41.1574 21.2563 41.1574 20.8796V10.4717C41.1574 9.643 41.2304 7.5765 41.0532 6.7908C40.7769 5.47233 39.9481 5.10101 38.8742 5.10101C37.9776 5.10101 37.0394 5.71988 36.6588 6.71008C36.2783 7.70028 36.3148 9.35778 36.3148 10.4717V20.8796C36.3148 21.2724 35.9968 21.5899 35.6006 21.5899H31.8996C31.5243 21.563 31.2324 21.2563 31.2324 20.8796L31.2272 10.4717C31.2272 8.28148 31.5764 5.05796 28.944 5.05796C26.2803 5.05796 26.3845 8.20075 26.3845 10.4717V20.8796C26.3845 21.2724 26.0666 21.5899 25.6704 21.5899" fill="#FFFDF8"/>
<path fill-rule="evenodd" clip-rule="evenodd" d="M94.1703 0.182251C99.6698 0.182251 102.646 5.0579 102.646 11.2574C102.646 17.247 99.357 21.9989 94.1703 21.9989C88.7699 21.9989 85.83 17.1232 85.83 11.0475C85.83 4.93412 88.8064 0.182251 94.1703 0.182251ZM94.2016 4.19148C91.4701 4.19148 91.2981 8.03387 91.2981 10.4286C91.2981 12.8288 91.2616 17.952 94.1703 17.952C97.0426 17.952 97.1781 13.819 97.1781 11.3004C97.1781 9.64294 97.1103 7.66255 96.6255 6.09114C96.2085 4.72425 95.3797 4.19148 94.2016 4.19148Z" fill="#FFFDF8"/>
<path fill-rule="evenodd" clip-rule="evenodd" d="M109.777 21.5899H106.087C105.717 21.563 105.42 21.2562 105.42 20.8795L105.414 1.23703C105.446 0.876465 105.753 0.596628 106.129 0.596628H109.564C109.887 0.612762 110.153 0.838796 110.226 1.14554V4.14842H110.294C111.331 1.46305 112.785 0.182251 115.345 0.182251C117.008 0.182251 118.629 0.801125 119.671 2.4963C120.641 4.0677 120.641 6.71002 120.641 8.60969V20.971C120.599 21.3154 120.292 21.5899 119.927 21.5899H116.21C115.871 21.563 115.59 21.3047 115.553 20.971V10.3049C115.553 8.15764 115.793 5.01484 113.234 5.01484C112.332 5.01484 111.503 5.6391 111.091 6.58624C110.57 7.78632 110.502 8.98101 110.502 10.3049V20.8795C110.497 21.2724 110.174 21.5899 109.777 21.5899" fill="#FFFDF8"/>
<path fill-rule="evenodd" clip-rule="evenodd" d="M60.3976 12.2099C60.3976 13.7006 60.4341 14.9437 59.7043 16.2676C59.1153 17.3439 58.177 18.0058 57.1397 18.0058C55.7166 18.0058 54.8825 16.8864 54.8825 15.2343C54.8825 11.9731 57.713 11.3812 60.3976 11.3812V12.2099ZM64.1351 21.5361C63.8901 21.7621 63.5357 21.7782 63.2594 21.6276C62.0292 20.5728 61.805 20.0831 61.1326 19.0767C59.0996 21.2186 57.6557 21.859 55.0233 21.859C51.9008 21.859 49.4769 19.8732 49.4769 15.8963C49.4769 12.7911 51.1033 10.6762 53.4282 9.64294C55.4403 8.72808 58.25 8.56664 60.3976 8.31371V7.81861C60.3976 6.90913 60.4654 5.83283 59.9441 5.04713C59.4958 4.34215 58.6305 4.05155 57.8642 4.05155C56.4516 4.05155 55.1953 4.79958 54.8877 6.34946C54.8252 6.69387 54.5802 7.03291 54.2414 7.04905L50.6498 6.65082C50.3475 6.58086 50.0086 6.32793 50.0972 5.84898C50.9209 1.35004 54.8617 -0.00610352 58.3855 -0.00610352C60.1891 -0.00610352 62.5453 0.488996 63.9683 1.89895C65.7719 3.63718 65.5999 5.95661 65.5999 8.48053V14.4432C65.5999 16.2353 66.3193 17.021 66.9969 17.9897C67.2315 18.3341 67.2836 18.7484 66.9813 19.0068C66.2254 19.6579 64.8805 20.8688 64.1403 21.5468L64.1351 21.5361" fill="#FFFDF8"/>
<path fill-rule="evenodd" clip-rule="evenodd" d="M11.8093 12.2102C11.8093 13.7009 11.8458 14.944 11.116 16.2679C10.527 17.3442 9.59393 18.0061 8.55138 18.0061C7.12831 18.0061 6.29949 16.8867 6.29949 15.2346C6.29949 11.9734 9.13 11.3815 11.8093 11.3815V12.2102ZM15.5469 21.5364C15.3019 21.7624 14.9474 21.7785 14.6711 21.6279C13.4409 20.5731 13.222 20.0834 12.5443 19.077C10.5114 21.2189 9.07266 21.8593 6.43502 21.8593C3.3178 21.8593 0.888672 19.8735 0.888672 15.8966C0.888672 12.7914 2.52026 10.6765 4.83992 9.64324C6.85203 8.72838 9.6617 8.56694 11.8093 8.31401V7.81891C11.8093 6.90944 11.8771 5.83313 11.361 5.04744C10.9075 4.34246 10.0422 4.05186 9.28117 4.05186C7.86852 4.05186 6.60704 4.79989 6.29949 6.34976C6.23693 6.69418 5.99193 7.03321 5.65832 7.04936L2.06154 6.65112C1.7592 6.58117 1.42558 6.32823 1.50899 5.84928C2.33781 1.35034 6.27342 -0.00579834 9.79723 -0.00579834C11.6008 -0.00579834 13.957 0.489301 15.3801 1.89925C17.1837 3.63748 17.0116 5.95691 17.0116 8.48084V14.4435C17.0116 16.2356 17.731 17.0213 18.4087 17.99C18.6484 18.3344 18.7006 18.7487 18.3982 19.0071C17.6424 19.6582 16.2975 20.8691 15.5573 21.5471L15.5469 21.5364" fill="#FFFDF8"/>
</g>
<defs>
<clipPath id="clip0_1_308">
<rect width="119.752" height="37.2562" fill="white" transform="translate(0.888672 -0.00610352)"/>
</clipPath>
</defs>
</svg>
