<svg width="20" height="20" viewBox="0 0 20 20" fill="none" xmlns="http://www.w3.org/2000/svg">
<path fill-rule="evenodd" clip-rule="evenodd" d="M14.25 1C14.25 0.585786 14.5858 0.25 15 0.25H17C18.5188 0.25 19.75 1.48122 19.75 3V5C19.75 5.41421 19.4142 5.75 19 5.75C18.5858 5.75 18.25 5.41421 18.25 5V3C18.25 2.93994 18.2458 2.88088 18.2376 2.82308L13.5303 7.53033C13.2374 7.82322 12.7626 7.82322 12.4697 7.53033C12.1768 7.23744 12.1768 6.76256 12.4697 6.46967L17.1769 1.76242C17.1191 1.75424 17.0601 1.75 17 1.75H15C14.5858 1.75 14.25 1.41421 14.25 1Z" fill="#0B2131"/>
<path fill-rule="evenodd" clip-rule="evenodd" d="M3 1.75C2.30964 1.75 1.75 2.30964 1.75 3C1.75 11.4223 8.57766 18.25 17 18.25C17.6904 18.25 18.25 17.6904 18.25 17V15.3541C18.25 14.8429 17.9388 14.3833 17.4642 14.1935L15.4301 13.3798C14.8265 13.1384 14.1386 13.3999 13.8478 13.9814L13.6708 14.3354C13.5196 14.6379 13.1846 14.8018 12.8529 14.7354L13 14C12.8529 14.7354 12.8532 14.7355 12.8529 14.7354L12.8519 14.7352L12.8507 14.735L12.8475 14.7343L12.8385 14.7325L12.8097 14.7263C12.7859 14.721 12.7529 14.7135 12.7114 14.7034C12.6285 14.6832 12.5115 14.6528 12.3665 14.6101C12.0768 14.525 11.6734 14.3903 11.2046 14.1894C10.2704 13.789 9.05609 13.1167 7.96967 12.0303C6.88325 10.9439 6.21099 9.72958 5.81064 8.79544C5.60973 8.32664 5.47504 7.92316 5.38985 7.6335C5.34721 7.48851 5.31682 7.37154 5.29664 7.28859C5.28655 7.2471 5.279 7.21408 5.27374 7.19026L5.26753 7.1615L5.26566 7.15247L5.26501 7.14932L5.26477 7.14809C5.26472 7.14785 5.26456 7.14709 6 7L5.26456 7.14709C5.19824 6.81544 5.36208 6.48043 5.66459 6.32918L6.01861 6.15217C6.60008 5.86143 6.86163 5.17351 6.62018 4.5699L5.80653 2.53576C5.6167 2.06119 5.15706 1.75 4.64593 1.75H3ZM6.88322 7.38709C8.02553 6.69729 8.51646 5.27171 8.0129 4.01281L7.19925 1.97868C6.78162 0.934616 5.77042 0.25 4.64593 0.25H3C1.48122 0.25 0.25 1.48122 0.25 3C0.25 12.2508 7.74923 19.75 17 19.75C18.5188 19.75 19.75 18.5188 19.75 17V15.3541C19.75 14.2296 19.0654 13.2184 18.0213 12.8008L15.9872 11.9871C14.7283 11.4835 13.3027 11.9745 12.6129 13.1168C12.3906 13.0457 12.111 12.9459 11.7954 12.8106C10.9796 12.461 9.94391 11.8833 9.03033 10.9697C8.11675 10.0561 7.53901 9.02042 7.18936 8.20456C7.05411 7.88897 6.95433 7.60941 6.88322 7.38709Z" fill="#0B2131"/>
</svg>
