<svg width="82" height="82" viewBox="0 0 82 82" fill="none" xmlns="http://www.w3.org/2000/svg">
<path d="M58.9375 17.9375H69.1875V28.1875H58.9375V17.9375ZM58.9375 33.3125H69.1875V43.5625H58.9375V33.3125ZM43.5625 17.9375H53.8125V28.1875H43.5625V17.9375ZM43.5625 33.3125H53.8125V43.5625H43.5625V33.3125Z" fill="#F3DF6B" stroke="#0B2131" stroke-width="3"/>
<path d="M37.1562 66.625C39.2791 66.625 41 64.9041 41 62.7812C41 60.6584 39.2791 58.9375 37.1562 58.9375C35.0334 58.9375 33.3125 60.6584 33.3125 62.7812C33.3125 64.9041 35.0334 66.625 37.1562 66.625Z" fill="#0B2131"/>
<path d="M53.8125 76.875H20.5C19.1412 76.8736 17.8384 76.3333 16.8776 75.3724C15.9167 74.4116 15.3764 73.1088 15.375 71.75V10.25C15.3764 8.89118 15.9167 7.58841 16.8776 6.62758C17.8384 5.66675 19.1412 5.12636 20.5 5.125H53.8125V10.25H20.5V71.75H53.8125V51.25H58.9375V71.75C58.9361 73.1088 58.3958 74.4116 57.4349 75.3724C56.4741 76.3333 55.1713 76.8736 53.8125 76.875Z" fill="#0B2131"/>
</svg>
