<svg width="24" height="24" viewBox="0 0 24 24" fill="none" xmlns="http://www.w3.org/2000/svg">
<path fill-rule="evenodd" clip-rule="evenodd" d="M8.27816 5.08285C7.36993 5.95924 6.75002 7.34676 6.75002 9.4C6.75002 11.4143 7.63995 13.6705 8.82043 15.4408C9.40667 16.3199 10.044 17.0475 10.6398 17.5462C11.263 18.0677 11.7337 18.25 12 18.25C12.2663 18.25 12.7371 18.0677 13.3602 17.5462C13.9561 17.0475 14.5934 16.3199 15.1796 15.4408C16.3601 13.6705 17.25 11.4143 17.25 9.4C17.25 7.34676 16.6301 5.95924 15.7219 5.08285C14.8072 4.20029 13.511 3.75 12 3.75C10.489 3.75 9.19279 4.20029 8.27816 5.08285ZM7.23659 4.00344C8.49353 2.79057 10.1973 2.25 12 2.25C13.8027 2.25 15.5065 2.79057 16.7634 4.00344C18.0268 5.22248 18.75 7.03496 18.75 9.4C18.75 11.804 17.7114 14.3478 16.4276 16.273C15.7817 17.2416 15.0529 18.0855 14.3229 18.6965C13.6201 19.2846 12.8051 19.75 12 19.75C11.1949 19.75 10.3799 19.2846 9.67715 18.6965C8.94715 18.0855 8.21836 17.2416 7.57246 16.273C6.28865 14.3478 5.25002 11.804 5.25002 9.4C5.25002 7.03496 5.97325 5.22248 7.23659 4.00344Z" fill="#0B2131"/>
<path fill-rule="evenodd" clip-rule="evenodd" d="M12 7.75C11.3097 7.75 10.75 8.30964 10.75 9C10.75 9.69036 11.3097 10.25 12 10.25C12.6904 10.25 13.25 9.69036 13.25 9C13.25 8.30964 12.6904 7.75 12 7.75ZM9.25002 9C9.25002 7.48122 10.4812 6.25 12 6.25C13.5188 6.25 14.75 7.48122 14.75 9C14.75 10.5188 13.5188 11.75 12 11.75C10.4812 11.75 9.25002 10.5188 9.25002 9Z" fill="#0B2131"/>
<path fill-rule="evenodd" clip-rule="evenodd" d="M9.45346 21.5653C8.53849 21.1078 7.46153 21.1078 6.54657 21.5653L4.33542 22.6709C3.96494 22.8561 3.51443 22.7059 3.32919 22.3354C3.14395 21.965 3.29412 21.5145 3.6646 21.3292L5.87575 20.2236C7.213 19.555 8.78702 19.555 10.1243 20.2236L10.5466 20.4348C11.4615 20.8923 12.5385 20.8923 13.4535 20.4348L13.8757 20.2236C15.213 19.555 16.787 19.555 18.1243 20.2236L20.3354 21.3292C20.7059 21.5145 20.8561 21.965 20.6708 22.3354C20.4856 22.7059 20.0351 22.8561 19.6646 22.6709L17.4535 21.5653C16.5385 21.1078 15.4615 21.1078 14.5466 21.5653L14.1243 21.7764C12.787 22.4451 11.213 22.4451 9.87575 21.7764L9.45346 21.5653Z" fill="#0B2131"/>
</svg>
