<svg width="80" height="15" viewBox="0 0 80 15" fill="none" xmlns="http://www.w3.org/2000/svg">
<path d="M5.5 14.44C4.27333 14.44 3.20667 14.2067 2.3 13.74C1.40667 13.2733 0.64 12.5933 0 11.7L1.68 9.78C2.33333 10.7 2.96667 11.3333 3.58 11.68C4.20667 12.0133 4.91333 12.18 5.7 12.18C6.15333 12.18 6.56667 12.1133 6.94 11.98C7.31333 11.8467 7.60667 11.66 7.82 11.42C8.03333 11.1667 8.14 10.8733 8.14 10.54C8.14 10.3133 8.09333 10.1067 8 9.92C7.92 9.72 7.79333 9.54667 7.62 9.4C7.46 9.24 7.25333 9.09333 7 8.96C6.76 8.82667 6.47333 8.71333 6.14 8.62C5.82 8.51333 5.46667 8.42667 5.08 8.36C4.33333 8.21333 3.68667 8.02 3.14 7.78C2.60667 7.52667 2.15333 7.22 1.78 6.86C1.42 6.48667 1.14667 6.07333 0.96 5.62C0.786667 5.15333 0.7 4.62667 0.7 4.04C0.7 3.25333 0.92 2.56 1.36 1.96C1.81333 1.34667 2.41333 0.866666 3.16 0.519999C3.92 0.173333 4.75333 0 5.66 0C6.83333 0 7.82667 0.213333 8.64 0.64C9.46667 1.06667 10.1133 1.67333 10.58 2.46L8.86 4.14C8.46 3.52667 7.98667 3.06 7.44 2.74C6.89333 2.42 6.3 2.26 5.66 2.26C5.18 2.26 4.76 2.33333 4.4 2.48C4.05333 2.61333 3.78 2.80667 3.58 3.06C3.38 3.3 3.28 3.59333 3.28 3.94C3.28 4.19333 3.33333 4.42667 3.44 4.64C3.56 4.85333 3.73333 5.04 3.96 5.2C4.18667 5.36 4.47333 5.5 4.82 5.62C5.16667 5.74 5.56667 5.84667 6.02 5.94C6.75333 6.1 7.40667 6.3 7.98 6.54C8.56667 6.78 9.06 7.07333 9.46 7.42C9.87333 7.75333 10.1867 8.14 10.4 8.58C10.6133 9.00667 10.72 9.48667 10.72 10.02C10.72 10.9267 10.5067 11.7133 10.08 12.38C9.65333 13.0467 9.04667 13.56 8.26 13.92C7.47333 14.2667 6.55333 14.44 5.5 14.44Z" fill="#0B2131"/>
<path d="M13.6186 14.24V0.239999H19.4386C20.2386 0.239999 20.9586 0.433333 21.5986 0.82C22.2519 1.20667 22.7653 1.73333 23.1386 2.4C23.5253 3.06667 23.7186 3.81333 23.7186 4.64C23.7186 5.46667 23.5253 6.22 23.1386 6.9C22.7653 7.56667 22.2519 8.1 21.5986 8.5C20.9586 8.9 20.2386 9.1 19.4386 9.1H16.1986V14.24H13.6186ZM16.1986 6.72H19.2586C19.6053 6.72 19.9119 6.62667 20.1786 6.44C20.4586 6.25333 20.6786 6.00667 20.8386 5.7C21.0119 5.38 21.0986 5.03333 21.0986 4.66C21.0986 4.27333 21.0119 3.92667 20.8386 3.62C20.6786 3.31333 20.4586 3.07333 20.1786 2.9C19.9119 2.72667 19.6053 2.64 19.2586 2.64H16.1986V6.72Z" fill="#0B2131"/>
<path d="M26.4702 14.24V0.239999H32.5702C33.3968 0.239999 34.1568 0.439999 34.8502 0.84C35.5435 1.22667 36.0902 1.76 36.4902 2.44C36.9035 3.10667 37.1102 3.86 37.1102 4.7C37.1102 5.5 36.9035 6.23333 36.4902 6.9C36.0902 7.56667 35.5435 8.1 34.8502 8.5C34.1702 8.9 33.4102 9.1 32.5702 9.1H29.0102V14.24H26.4702ZM34.6102 14.24L31.0502 7.92L33.7102 7.42L37.6702 14.26L34.6102 14.24ZM29.0102 6.82H32.5902C32.9635 6.82 33.2968 6.73333 33.5902 6.56C33.8835 6.37333 34.1102 6.12667 34.2702 5.82C34.4302 5.5 34.5102 5.14667 34.5102 4.76C34.5102 4.32 34.4102 3.94 34.2102 3.62C34.0102 3.3 33.7302 3.04667 33.3702 2.86C33.0102 2.67333 32.5968 2.58 32.1302 2.58H29.0102V6.82Z" fill="#0B2131"/>
<path d="M40.015 14.24V11.94H42.295V2.54H40.015V0.239999H47.175V2.54H44.875V11.94H47.175V14.24H40.015Z" fill="#0B2131"/>
<path d="M50.5131 14.24V0.239999H52.8331L60.9931 11.2L60.5531 11.3C60.4598 10.6867 60.3798 10.0333 60.3131 9.34C60.2598 8.64667 60.2198 7.89333 60.1931 7.08C60.1665 6.26667 60.1531 5.38 60.1531 4.42V0.239999H62.7131V14.24H60.3531L52.1931 3.46L52.6731 3.32C52.7665 4.26667 52.8398 5.04667 52.8931 5.66C52.9465 6.26 52.9865 6.75333 53.0131 7.14C53.0398 7.52667 53.0531 7.84667 53.0531 8.1C53.0665 8.35333 53.0731 8.59333 53.0731 8.82V14.24H50.5131Z" fill="#0B2131"/>
<path d="M72.8102 14.44C71.7702 14.44 70.8035 14.26 69.9102 13.9C69.0302 13.5267 68.2568 13.0133 67.5902 12.36C66.9235 11.7067 66.4102 10.9467 66.0502 10.08C65.6902 9.2 65.5102 8.24667 65.5102 7.22C65.5102 6.20667 65.6968 5.26667 66.0702 4.4C66.4435 3.53333 66.9568 2.77333 67.6102 2.12C68.2768 1.46667 69.0568 0.96 69.9502 0.599999C70.8568 0.239999 71.8302 0.0599992 72.8702 0.0599992C73.5902 0.0599992 74.2902 0.16 74.9702 0.36C75.6502 0.56 76.2635 0.84 76.8102 1.2C77.3702 1.56 77.8302 1.96667 78.1902 2.42L76.5502 4.12C75.9902 3.58667 75.4035 3.18 74.7902 2.9C74.1768 2.62 73.5302 2.48 72.8502 2.48C72.1835 2.48 71.5635 2.6 70.9902 2.84C70.4302 3.08 69.9302 3.41333 69.4902 3.84C69.0635 4.26667 68.7302 4.76667 68.4902 5.34C68.2635 5.91333 68.1502 6.54 68.1502 7.22C68.1502 7.88667 68.2702 8.51333 68.5102 9.1C68.7635 9.67333 69.1102 10.18 69.5502 10.62C70.0035 11.06 70.5168 11.4067 71.0902 11.66C71.6768 11.9 72.2968 12.02 72.9502 12.02C73.4435 12.02 73.9035 11.9533 74.3302 11.82C74.7568 11.6733 75.1368 11.4733 75.4702 11.22C75.8035 10.9533 76.0568 10.6467 76.2302 10.3C76.4168 9.95333 76.5102 9.58667 76.5102 9.2V8.76L76.8702 9.16H72.7302V6.84H79.0702C79.0968 6.98667 79.1168 7.15333 79.1302 7.34C79.1435 7.51333 79.1502 7.68 79.1502 7.84C79.1635 8 79.1702 8.14 79.1702 8.26C79.1702 9.18 79.0035 10.02 78.6702 10.78C78.3502 11.5267 77.9035 12.1733 77.3302 12.72C76.7568 13.2667 76.0835 13.6933 75.3102 14C74.5502 14.2933 73.7168 14.44 72.8102 14.44Z" fill="#0B2131"/>
</svg>
