<svg width="22" height="18" viewBox="0 0 22 18" fill="none" xmlns="http://www.w3.org/2000/svg">
<path fill-rule="evenodd" clip-rule="evenodd" d="M0.25 7C0.25 3.27208 3.27208 0.25 7 0.25H15C18.7279 0.25 21.75 3.27208 21.75 7V11C21.75 14.7279 18.7279 17.75 15 17.75H7C3.27208 17.75 0.25 14.7279 0.25 11V7ZM7 1.75C4.10051 1.75 1.75 4.10051 1.75 7V11C1.75 13.8995 4.10051 16.25 7 16.25H15C17.8995 16.25 20.25 13.8995 20.25 11V7C20.25 4.10051 17.8995 1.75 15 1.75H7Z" fill="#0B2131"/>
<path fill-rule="evenodd" clip-rule="evenodd" d="M5.41438 5.53151C5.67313 5.20806 6.1451 5.15562 6.46855 5.41438L8.96977 7.41535C10.1567 8.36492 11.8433 8.36492 13.0303 7.41535L15.5315 5.41438C15.855 5.15562 16.3269 5.20806 16.5857 5.53151C16.8444 5.85495 16.792 6.32692 16.4685 6.58568L13.9673 8.58665C12.2325 9.97449 9.76751 9.97449 8.03272 8.58665L5.53151 6.58568C5.20806 6.32692 5.15562 5.85495 5.41438 5.53151Z" fill="#0B2131"/>
</svg>
