<svg width="86" height="86" viewBox="0 0 86 86" fill="none" xmlns="http://www.w3.org/2000/svg">
<path d="M69.875 5H80.625V15.75H69.875V5ZM69.875 21.125H80.625V31.875H69.875V21.125ZM53.75 5H64.5V15.75H53.75V5ZM53.75 21.125H64.5V31.875H53.75V21.125Z" fill="#F3DF6B" stroke="#0B2131" stroke-width="3"/>
<path d="M75.25 42.625V58.75H10.75V15.75H43V10.375H10.75C9.32446 10.375 7.95731 10.9413 6.9493 11.9493C5.94129 12.9573 5.375 14.3245 5.375 15.75V58.75C5.375 60.1755 5.94129 61.5427 6.9493 62.5507C7.95731 63.5587 9.32446 64.125 10.75 64.125H32.25V74.875H21.5V80.25H64.5V74.875H53.75V64.125H75.25C76.6755 64.125 78.0427 63.5587 79.0507 62.5507C80.0587 61.5427 80.625 60.1755 80.625 58.75V42.625H75.25ZM48.375 74.875H37.625V64.125H48.375V74.875Z" fill="#0B2131"/>
</svg>
