<svg width="30" height="30" viewBox="0 0 30 30" fill="none" xmlns="http://www.w3.org/2000/svg">
<path fill-rule="evenodd" clip-rule="evenodd" d="M24.3772 6.80317C24.762 7.14954 24.7932 7.74231 24.4469 8.12716L14.7749 18.8738C13.5567 20.2274 11.4944 20.3961 10.0724 19.2585L5.66438 15.7321C5.26007 15.4086 5.19452 14.8187 5.51797 14.4144C5.84142 14.01 6.43138 13.9445 6.83569 14.2679L11.2437 17.7944C11.8901 18.3114 12.8275 18.2348 13.3812 17.6195L23.0532 6.87285C23.3996 6.488 23.9923 6.4568 24.3772 6.80317Z" fill="#2700EF"/>
<path fill-rule="evenodd" clip-rule="evenodd" d="M7.81253 22.5C7.81253 21.9822 8.23226 21.5625 8.75003 21.5625H16.25C16.7678 21.5625 17.1875 21.9822 17.1875 22.5C17.1875 23.0178 16.7678 23.4375 16.25 23.4375H8.75003C8.23226 23.4375 7.81253 23.0178 7.81253 22.5Z" fill="#2700EF"/>
</svg>
